<svg height="100%" width="100%" id="svg" viewBox="0 0 1440 500" xmlns="http://www.w3.org/2000/svg" class="transition duration-300 ease-in-out delay-150"><defs><linearGradient id="gradient"><stop offset="5%" stop-color="#8ed1fc66"></stop><stop offset="95%" stop-color="#0693e366"></stop></linearGradient></defs><path d="M 0,500 C 0,500 0,125 0,125 C 118.01913875598089,144.55023923444975 236.03827751196178,164.10047846889952 322,159 C 407.9617224880382,153.89952153110048 461.86602870813397,124.14832535885168 547,129 C 632.133971291866,133.85167464114832 748.4976076555023,173.3062200956938 867,168 C 985.5023923444977,162.6937799043062 1106.1435406698565,112.62679425837321 1202,98 C 1297.8564593301435,83.37320574162679 1368.9282296650717,104.1866028708134 1440,125 C 1440,125 1440,500 1440,500 Z" stroke="none" stroke-width="0" fill="url(#gradient)" class="transition-all duration-300 ease-in-out delay-150"></path><defs><linearGradient id="gradient"><stop offset="5%" stop-color="#8ed1fc88"></stop><stop offset="95%" stop-color="#0693e388"></stop></linearGradient></defs><path d="M 0,500 C 0,500 0,250 0,250 C 117.76076555023923,264.0574162679426 235.52153110047846,278.11483253588517 340,273 C 444.47846889952154,267.88516746411483 535.6746411483253,243.59808612440193 624,239 C 712.3253588516747,234.40191387559807 797.77990430622,249.49282296650722 875,258 C 952.22009569378,266.5071770334928 1021.2057416267944,268.4306220095694 1114,266 C 1206.7942583732056,263.5693779904306 1323.3971291866028,256.78468899521533 1440,250 C 1440,250 1440,500 1440,500 Z" stroke="none" stroke-width="0" fill="url(#gradient)" class="transition-all duration-300 ease-in-out delay-150"></path><defs><linearGradient id="gradient"><stop offset="5%" stop-color="#8ed1fcff"></stop><stop offset="95%" stop-color="#0693e3ff"></stop></linearGradient></defs><path d="M 0,500 C 0,500 0,375 0,375 C 114.64114832535887,377.20095693779905 229.28229665071774,379.4019138755981 318,367 C 406.71770334928226,354.5980861244019 469.51196172248797,327.59330143540666 570,328 C 670.488038277512,328.40669856459334 808.66985645933,356.22488038277515 915,364 C 1021.33014354067,371.77511961722485 1095.8086124401914,359.50717703349284 1178,358 C 1260.1913875598086,356.49282296650716 1350.0956937799042,365.7464114832536 1440,375 C 1440,375 1440,500 1440,500 Z" stroke="none" stroke-width="0" fill="url(#gradient)" class="transition-all duration-300 ease-in-out delay-150"></path></svg>